# xmcd
#
# Track frame offsets:
#	150
#	11560
#	29265
#	47833
#	66047
#	83597
#	98125
#	117181
#	133580
#	151179
#	164993
#	177922
#	197915
#	213903
#
# Disc length: 3040 seconds
#
# Revision: 0
# Processed by: cddbd v1.5.1PL0 Copyright (c) Steve Scherf et al.
# Submitted via: audiograbber 1.83.01
#
DISCID=b90bde0e
DTITLE=Montgomery, John Michael - Greatest Hits - Montgomery, John Michael - Gr
DTITLE=eatest Hits
DYEAR=1997
DGENRE=Country
TTITLE0=Sold (The Grundy County Auction Incident)
TTITLE1=If You've Got Love
TTITLE2=Rope The Moon
TTITLE3=I Love The Way You Love Me
TTITLE4=Friends
TTITLE5=Cowboy Love
TTITLE6=I Miss You A Little
TTITLE7=Beer And Bones
TTITLE8=I Can Love You Like That
TTITLE9=No Man's Land
TTITLE10=Be My Baby Tonight
TTITLE11=I Swear
TTITLE12=Angel In My Eyes
TTITLE13=Life's A Dance
EXTD=
EXTT0=
EXTT1=
EXTT2=
EXTT3=
EXTT4=
EXTT5=
EXTT6=
EXTT7=
EXTT8=
EXTT9=
EXTT10=
EXTT11=
EXTT12=
EXTT13=
PLAYORDER=
